<mxfile host="app.diagrams.net" modified="2023-12-06T10:48:24.763Z" agent="Mozilla/5.0 (Windows NT 10.0; Win64; x64; rv:120.0) Gecko/20100101 Firefox/120.0" etag="Z9tURubxlFroxC4UC80O" version="22.1.5" type="github">
  <diagram name="Page-1" id="2ca16b54-16f6-2749-3443-fa8db7711227">
    <mxGraphModel dx="2449" dy="2209" grid="1" gridSize="10" guides="1" tooltips="1" connect="1" arrows="1" fold="1" page="1" pageScale="1" pageWidth="1100" pageHeight="850" background="none" math="0" shadow="0">
      <root>
        <mxCell id="0" />
        <mxCell id="1" parent="0" />
        <mxCell id="2ed32ef02a7f4228-20" style="edgeStyle=orthogonalEdgeStyle;html=1;dashed=1;labelBackgroundColor=none;startArrow=ERmandOne;endArrow=ERoneToMany;fontFamily=Verdana;fontSize=12;align=left;" parent="1" source="2ed32ef02a7f4228-2" target="2ed32ef02a7f4228-11" edge="1">
          <mxGeometry relative="1" as="geometry" />
        </mxCell>
        <mxCell id="2ed32ef02a7f4228-2" value="&lt;div align=&quot;center&quot;&gt;&lt;b&gt;ÜRÜN ARAŞTIRMASI TANIMI&lt;/b&gt;&lt;/div&gt;&lt;div align=&quot;center&quot;&gt;&lt;br&gt;&lt;/div&gt;&lt;div align=&quot;center&quot;&gt;Ürünü araştıran kişi internetten &lt;br&gt;&lt;/div&gt;&lt;div align=&quot;center&quot;&gt;satışının gerçekleştirilebilecek &lt;br&gt;&lt;/div&gt;&lt;div align=&quot;center&quot;&gt;tedarik süreci kolay ve hızlı olan &lt;br&gt;&lt;/div&gt;&lt;div align=&quot;center&quot;&gt;ürünlerin tespitini ve pazar araştır-&lt;/div&gt;&lt;div align=&quot;center&quot;&gt;masını yapmalıdır. Ürünle ilgili paz-&lt;/div&gt;&lt;div align=&quot;center&quot;&gt;arlama teknikleri geliştirmeli ve &lt;br&gt;&lt;/div&gt;&lt;div align=&quot;center&quot;&gt;ürünü tanımalıdır. Bulunabilecek en &lt;br&gt;&lt;/div&gt;&lt;div align=&quot;center&quot;&gt;ucuz ve erişileblir ürünü tespit &lt;br&gt;&lt;/div&gt;&lt;div align=&quot;center&quot;&gt;etmelidir&lt;br&gt;&lt;/div&gt;&lt;div align=&quot;center&quot;&gt;&lt;b&gt;&lt;br&gt;&lt;/b&gt;&lt;/div&gt;" style="verticalAlign=top;align=center;overflow=fill;html=1;rounded=0;shadow=0;comic=0;labelBackgroundColor=none;strokeWidth=1;fontFamily=Verdana;fontSize=12" parent="1" vertex="1">
          <mxGeometry x="450" y="100" width="300" height="160" as="geometry" />
        </mxCell>
        <mxCell id="2ed32ef02a7f4228-22" style="edgeStyle=orthogonalEdgeStyle;html=1;exitX=0;exitY=0.75;entryX=1;entryY=0.5;dashed=1;labelBackgroundColor=none;startArrow=ERmandOne;endArrow=ERoneToMany;fontFamily=Verdana;fontSize=12;align=left;entryDx=0;entryDy=0;" parent="1" source="2ed32ef02a7f4228-8" target="i9xBxG8gcvza3OIVQHfW-5" edge="1">
          <mxGeometry relative="1" as="geometry">
            <mxPoint x="290" y="585" as="targetPoint" />
          </mxGeometry>
        </mxCell>
        <mxCell id="2ed32ef02a7f4228-6" value="&lt;div align=&quot;center&quot;&gt;&lt;b&gt;&lt;br&gt;&lt;/b&gt;&lt;/div&gt;&lt;div align=&quot;center&quot;&gt;&lt;b&gt;İNSTAGRAM İÇERİK ÜRETİCİSİ&lt;/b&gt;&lt;/div&gt;&lt;div align=&quot;center&quot;&gt;&lt;br&gt;&lt;/div&gt;&lt;div align=&quot;center&quot;&gt;İnstagram sistemin tanıılması için &lt;br&gt;&lt;/div&gt;&lt;div align=&quot;center&quot;&gt;kullanılacak biricil kanaldır . burada&lt;/div&gt;&lt;div align=&quot;center&quot;&gt;üretilen içerikler ile ürünlerin tanımı&lt;/div&gt;&lt;div align=&quot;center&quot;&gt;yapılır. içerikler düzenli olarak yayın-&lt;/div&gt;&lt;div align=&quot;center&quot;&gt;lanır. İçeriklerin her zaman olarak &lt;br&gt;&lt;/div&gt;&lt;div align=&quot;center&quot;&gt;hazır olması için fazlasıyla içerik &lt;br&gt;&lt;/div&gt;&lt;div align=&quot;center&quot;&gt;üretip bunlar depolanmalıdır.&lt;br&gt;&lt;/div&gt;" style="verticalAlign=top;align=center;overflow=fill;html=1;rounded=0;shadow=0;comic=0;labelBackgroundColor=none;strokeWidth=1;fontFamily=Verdana;fontSize=12" parent="1" vertex="1">
          <mxGeometry x="270" y="450" width="340" height="150" as="geometry" />
        </mxCell>
        <mxCell id="2ed32ef02a7f4228-7" value="&lt;div align=&quot;center&quot;&gt;&lt;b&gt;ElKİP&lt;/b&gt;&lt;/div&gt;&lt;div align=&quot;center&quot;&gt;&lt;b&gt;&lt;br&gt;&lt;/b&gt;&lt;/div&gt;&lt;div align=&quot;center&quot;&gt;&lt;b&gt;--&amp;gt;&lt;/b&gt;ÜRÜN ARAŞTIRMA (&lt;b&gt;AGİT&lt;/b&gt;)&lt;/div&gt;&lt;div align=&quot;center&quot;&gt;--&amp;gt; E-TİCARET SİTESİ(&lt;b&gt;ENES&lt;/b&gt;)&lt;/div&gt;&lt;div align=&quot;center&quot;&gt;--&amp;gt; CANLI DESTEK(&lt;b&gt;ALEYNA&lt;/b&gt;)&lt;br&gt;&lt;/div&gt;&lt;div align=&quot;center&quot;&gt;&lt;br&gt;&lt;/div&gt;" style="verticalAlign=top;align=center;overflow=fill;html=1;rounded=0;shadow=0;comic=0;labelBackgroundColor=none;strokeWidth=1;fontFamily=Verdana;fontSize=12" parent="1" vertex="1">
          <mxGeometry x="80" y="690" width="260" height="90" as="geometry" />
        </mxCell>
        <mxCell id="2ed32ef02a7f4228-17" style="edgeStyle=orthogonalEdgeStyle;html=1;labelBackgroundColor=none;startArrow=ERmandOne;endArrow=ERoneToMany;fontFamily=Verdana;fontSize=12;align=left;dashed=1;" parent="1" edge="1">
          <mxGeometry relative="1" as="geometry">
            <mxPoint x="50" y="223.75" as="sourcePoint" />
            <mxPoint x="160" y="680" as="targetPoint" />
            <Array as="points">
              <mxPoint x="100" y="224" />
              <mxPoint x="100" y="640" />
            </Array>
          </mxGeometry>
        </mxCell>
        <mxCell id="i9xBxG8gcvza3OIVQHfW-8" style="edgeStyle=orthogonalEdgeStyle;rounded=0;orthogonalLoop=1;jettySize=auto;html=1;entryX=1.012;entryY=0.546;entryDx=0;entryDy=0;entryPerimeter=0;" parent="1" source="2ed32ef02a7f4228-8" target="2ed32ef02a7f4228-10" edge="1">
          <mxGeometry relative="1" as="geometry">
            <mxPoint x="80" y="180" as="targetPoint" />
            <Array as="points">
              <mxPoint x="265" y="445" />
              <mxPoint x="265" y="170" />
              <mxPoint x="70" y="170" />
              <mxPoint x="70" y="176" />
            </Array>
          </mxGeometry>
        </mxCell>
        <mxCell id="2ed32ef02a7f4228-8" value="&lt;div align=&quot;center&quot;&gt;&lt;br&gt;&lt;/div&gt;&lt;div align=&quot;center&quot;&gt;&lt;br&gt;&lt;/div&gt;&lt;div align=&quot;center&quot;&gt;&lt;br&gt;&lt;/div&gt;&lt;div align=&quot;center&quot;&gt;&lt;br&gt;&lt;/div&gt;&lt;div align=&quot;center&quot;&gt;&lt;br&gt;&lt;/div&gt;&lt;div align=&quot;center&quot;&gt;&lt;br&gt;&lt;/div&gt;&lt;div align=&quot;center&quot;&gt;&lt;br&gt;&lt;/div&gt;&lt;div align=&quot;center&quot;&gt;&lt;br&gt;&lt;/div&gt;&lt;div align=&quot;center&quot;&gt;&lt;br&gt;&lt;/div&gt;&lt;div align=&quot;center&quot;&gt;&lt;br&gt;&lt;/div&gt;&lt;div align=&quot;center&quot;&gt;&lt;br&gt;&lt;/div&gt;&lt;div align=&quot;center&quot;&gt;&lt;b&gt;E-COMMERCE &lt;/b&gt;&lt;br&gt;&lt;/div&gt;&lt;table align=&quot;center&quot; style=&quot;width: 100% ; font-size: 1em&quot; cellpadding=&quot;2&quot; cellspacing=&quot;0&quot;&gt;&lt;tbody&gt;&lt;tr&gt;&lt;td&gt;&lt;br&gt;&lt;/td&gt;&lt;td&gt;&lt;br&gt;&lt;/td&gt;&lt;/tr&gt;&lt;tr&gt;&lt;td&gt;&lt;br&gt;&lt;/td&gt;&lt;td&gt;&lt;br&gt;&lt;/td&gt;&lt;/tr&gt;&lt;tr&gt;&lt;td&gt;&lt;br&gt;&lt;/td&gt;&lt;td&gt;&lt;br&gt;&lt;/td&gt;&lt;/tr&gt;&lt;tr&gt;&lt;td&gt;&lt;br&gt;&lt;/td&gt;&lt;td&gt;&lt;br&gt;&lt;/td&gt;&lt;/tr&gt;&lt;tr&gt;&lt;td&gt;&lt;br&gt;&lt;/td&gt;&lt;td&gt;&lt;br&gt;&lt;/td&gt;&lt;/tr&gt;&lt;tr&gt;&lt;td&gt;&lt;br&gt;&lt;/td&gt;&lt;td&gt;&lt;br&gt;&lt;/td&gt;&lt;/tr&gt;&lt;tr&gt;&lt;td&gt;&lt;br&gt;&lt;/td&gt;&lt;td&gt;&lt;br&gt;&lt;/td&gt;&lt;/tr&gt;&lt;tr&gt;&lt;td&gt;&lt;br&gt;&lt;/td&gt;&lt;td&gt;&lt;br&gt;&lt;/td&gt;&lt;/tr&gt;&lt;tr&gt;&lt;td&gt;&lt;br&gt;&lt;/td&gt;&lt;td&gt;&lt;br&gt;&lt;/td&gt;&lt;/tr&gt;&lt;tr&gt;&lt;td&gt;&lt;br&gt;&lt;/td&gt;&lt;td&gt;&lt;br&gt;&lt;/td&gt;&lt;/tr&gt;&lt;tr&gt;&lt;td&gt;&lt;br&gt;&lt;/td&gt;&lt;td&gt;&lt;br&gt;&lt;/td&gt;&lt;/tr&gt;&lt;tr&gt;&lt;td&gt;&lt;br&gt;&lt;/td&gt;&lt;td&gt;&lt;br&gt;&lt;/td&gt;&lt;/tr&gt;&lt;tr&gt;&lt;td&gt;&lt;br&gt;&lt;/td&gt;&lt;td&gt;&lt;br&gt;&lt;/td&gt;&lt;/tr&gt;&lt;tr&gt;&lt;td&gt;&lt;br&gt;&lt;/td&gt;&lt;td&gt;&lt;br&gt;&lt;/td&gt;&lt;/tr&gt;&lt;tr&gt;&lt;td&gt;&lt;br&gt;&lt;/td&gt;&lt;td&gt;&lt;br&gt;&lt;/td&gt;&lt;/tr&gt;&lt;tr&gt;&lt;td&gt;&lt;br&gt;&lt;/td&gt;&lt;td&gt;&lt;br&gt;&lt;/td&gt;&lt;/tr&gt;&lt;tr&gt;&lt;td&gt;&lt;br&gt;&lt;/td&gt;&lt;td&gt;&lt;br&gt;&lt;/td&gt;&lt;/tr&gt;&lt;/tbody&gt;&lt;/table&gt;" style="verticalAlign=top;align=center;overflow=fill;html=1;rounded=0;shadow=0;comic=0;labelBackgroundColor=none;strokeWidth=1;fontFamily=Verdana;fontSize=12" parent="1" vertex="1">
          <mxGeometry x="-210" y="310" width="170" height="330" as="geometry" />
        </mxCell>
        <mxCell id="2ed32ef02a7f4228-10" value="&lt;table align=&quot;center&quot; style=&quot;width: 100% ; font-size: 1em&quot; cellpadding=&quot;2&quot; cellspacing=&quot;0&quot;&gt;&lt;tbody&gt;&lt;tr&gt;&lt;td&gt;&lt;br&gt;&lt;/td&gt;&lt;td&gt;&lt;br&gt;&lt;/td&gt;&lt;/tr&gt;&lt;tr&gt;&lt;td&gt;&lt;b&gt;İHTİYAÇLAR&lt;/b&gt;&lt;br&gt;&lt;/td&gt;&lt;td&gt;&lt;br&gt;&lt;/td&gt;&lt;/tr&gt;&lt;tr&gt;&lt;td&gt;--&amp;gt; e-Ticaret Sitesi&lt;br&gt;&lt;br&gt;--&amp;gt; Ürün Araştırmacısı&lt;br&gt;&lt;br&gt;--&amp;gt; İnstagram içerik üreticisi&lt;br&gt;&lt;/td&gt;&lt;td&gt;&lt;br&gt;&lt;/td&gt;&lt;/tr&gt;&lt;tr&gt;&lt;td&gt;&lt;br&gt;--&amp;gt; Sipariş Teslimatçısı&lt;br&gt;&lt;br&gt;--&amp;gt; Canlı Destek &lt;br&gt;&lt;br&gt;&lt;br&gt;&lt;/td&gt;&lt;td&gt;&lt;br&gt;&lt;/td&gt;&lt;/tr&gt;&lt;tr&gt;&lt;td&gt;&lt;br&gt;&lt;/td&gt;&lt;td&gt;&lt;br&gt;&lt;/td&gt;&lt;/tr&gt;&lt;tr&gt;&lt;td&gt;&lt;br&gt;&lt;/td&gt;&lt;td&gt;&lt;br&gt;&lt;/td&gt;&lt;/tr&gt;&lt;tr&gt;&lt;td&gt;&lt;br&gt;&lt;/td&gt;&lt;td&gt;&lt;br&gt;&lt;/td&gt;&lt;/tr&gt;&lt;tr&gt;&lt;td&gt;&lt;br&gt;&lt;/td&gt;&lt;td&gt;&lt;br&gt;&lt;/td&gt;&lt;/tr&gt;&lt;tr&gt;&lt;td&gt;&lt;br&gt;&lt;/td&gt;&lt;td&gt;&lt;br&gt;&lt;/td&gt;&lt;/tr&gt;&lt;tr&gt;&lt;td&gt;&lt;br&gt;&lt;/td&gt;&lt;td&gt;&lt;br&gt;&lt;/td&gt;&lt;/tr&gt;&lt;tr&gt;&lt;td&gt;&lt;br&gt;&lt;/td&gt;&lt;td&gt;&lt;br&gt;&lt;/td&gt;&lt;/tr&gt;&lt;tr&gt;&lt;td&gt;&lt;br&gt;&lt;/td&gt;&lt;td&gt;&lt;br&gt;&lt;/td&gt;&lt;/tr&gt;&lt;/tbody&gt;&lt;/table&gt;" style="verticalAlign=top;align=center;overflow=fill;html=1;rounded=0;shadow=0;comic=0;labelBackgroundColor=none;strokeWidth=1;fontFamily=Verdana;fontSize=12" parent="1" vertex="1">
          <mxGeometry x="-120" y="40" width="180" height="240" as="geometry" />
        </mxCell>
        <mxCell id="2ed32ef02a7f4228-11" value="&lt;div align=&quot;center&quot;&gt;&lt;b&gt;ÜRÜN BELİRLENİRKEN&lt;/b&gt;&lt;/div&gt;&lt;div align=&quot;center&quot;&gt;&lt;br&gt;&lt;/div&gt;&lt;div align=&quot;center&quot;&gt;-&amp;gt;Hedef Kitle&lt;/div&gt;&lt;div align=&quot;center&quot;&gt;-&amp;gt; Ucuzluk&lt;/div&gt;&lt;div align=&quot;center&quot;&gt;-&amp;gt; Hızlı Tedarik&lt;/div&gt;&lt;div align=&quot;center&quot;&gt;faktörleri dikkate alınmalıdır.&lt;br&gt;&lt;/div&gt;" style="verticalAlign=top;align=center;overflow=fill;html=1;rounded=0;shadow=0;comic=0;labelBackgroundColor=none;strokeWidth=1;fontFamily=Verdana;fontSize=12" parent="1" vertex="1">
          <mxGeometry x="495" y="310" width="210" height="90" as="geometry" />
        </mxCell>
        <mxCell id="i9xBxG8gcvza3OIVQHfW-5" value="&lt;div align=&quot;center&quot;&gt;&lt;b&gt;İŞ TANIMI&lt;br&gt;&lt;/b&gt;&lt;/div&gt;&lt;div align=&quot;left&quot;&gt;&lt;b&gt;&lt;br&gt;&lt;/b&gt;&lt;/div&gt;&lt;div align=&quot;center&quot;&gt;Belirlenen ürünler için başlangıçta sadece&amp;nbsp;&lt;/div&gt;&lt;div align=&quot;center&quot;&gt;internet üzeri ödeme alarak havuz da toplanan&lt;/div&gt;&lt;div align=&quot;center&quot;&gt;para ile ilgili siparişlerin teslimatı gerçekleştirilir.&lt;/div&gt;&lt;div align=&quot;center&quot;&gt;Sürecin başında temel amaç para kazanmakla &lt;br&gt;&lt;/div&gt;&lt;div align=&quot;center&quot;&gt;beraber belli bir müşteri portföyü oluşturmak&amp;nbsp;&lt;/div&gt;&lt;div align=&quot;center&quot;&gt;ve sistemitest edip iyileştirmektir.&lt;/div&gt;&lt;div align=&quot;center&quot;&gt;Alınan ücretler gerektiğinde müşterilerle ilet-&lt;/div&gt;&lt;div align=&quot;center&quot;&gt;işime geçerek iadesi yapılır. &lt;br&gt;  &lt;/div&gt;" style="verticalAlign=top;align=left;overflow=fill;html=1;rounded=0;shadow=0;comic=0;labelBackgroundColor=none;strokeWidth=1;fontFamily=Verdana;fontSize=12" parent="1" vertex="1">
          <mxGeometry x="-780" y="480" width="370" height="155" as="geometry" />
        </mxCell>
        <mxCell id="i9xBxG8gcvza3OIVQHfW-10" value="" style="endArrow=classic;html=1;rounded=0;entryX=0;entryY=0.154;entryDx=0;entryDy=0;entryPerimeter=0;" parent="1" target="2ed32ef02a7f4228-2" edge="1">
          <mxGeometry width="50" height="50" relative="1" as="geometry">
            <mxPoint x="120" y="120" as="sourcePoint" />
            <mxPoint x="280" y="120" as="targetPoint" />
            <Array as="points">
              <mxPoint x="60" y="120" />
              <mxPoint x="120" y="120" />
            </Array>
          </mxGeometry>
        </mxCell>
        <mxCell id="i9xBxG8gcvza3OIVQHfW-11" value="&lt;p&gt;&lt;strong&gt;Görevler ve Sorumluluklar:&lt;/strong&gt;&lt;/p&gt;&lt;ol&gt;&lt;li&gt;&lt;p&gt;&lt;strong&gt;Web Sitesi Yönetimi:&lt;/strong&gt; E-ticaret platformumuzun günlük işleyişini sağlamak, ürün katalogunu güncellemek ve web sitesinin genel performansını optimize etmek.&lt;/p&gt;&lt;/li&gt;&lt;li&gt;&lt;p&gt;&lt;strong&gt;Ürün Listeleme ve Açıklamalar:&lt;/strong&gt; Yeni ürünleri sisteme eklemek, ürün açıklamalarını zenginleştirmek ve müşterilere çekici içerik sunmak.&lt;/p&gt;&lt;/li&gt;&lt;li&gt;&lt;p&gt;&lt;strong&gt;Stok Yönetimi:&lt;/strong&gt; Stok takibi yapmak, taleplere göre stok seviyelerini güncellemek ve talep analizi yaparak stok sorunlarını çözmek.&lt;/p&gt;&lt;/li&gt;&lt;li&gt;&lt;p&gt;&lt;strong&gt;Pazarlama Kampanyaları:&lt;/strong&gt; İndirimler, promosyonlar ve özel kampanyalar gibi pazarlama stratejileri geliştirmek ve uygulamak.&lt;/p&gt;&lt;/li&gt;&lt;li&gt;&lt;p&gt;&lt;strong&gt;Müşteri Deneyimi İyileştirmesi:&lt;/strong&gt; Müşteri geri bildirimlerini değerlendirmek, alışveriş deneyimini sürekli olarak geliştirmek ve müşteri memnuniyetini artırmak.&lt;/p&gt;&lt;/li&gt;&lt;li&gt;&lt;p&gt;&lt;strong&gt;E-Ticaret Trendlerini Takip Etmek:&lt;/strong&gt; Dijital ticaret dünyasındaki yenilikleri ve trendleri sürekli olarak takip etmek ve işletmeye uyarlamak.&lt;/p&gt;&lt;/li&gt;&lt;li&gt;&lt;p&gt;&lt;strong&gt;Veri Analizi:&lt;/strong&gt; Satış verilerini analiz ederek satış stratejilerini optimize etmek, müşteri davranışlarını anlamak ve raporlamak.&lt;/p&gt;&lt;/li&gt;&lt;/ol&gt;" style="whiteSpace=wrap;html=1;aspect=fixed;" parent="1" vertex="1">
          <mxGeometry x="-780" y="40" width="410" height="410" as="geometry" />
        </mxCell>
        <mxCell id="i9xBxG8gcvza3OIVQHfW-14" value="" style="endArrow=classic;html=1;rounded=0;exitX=0.998;exitY=0.098;exitDx=0;exitDy=0;exitPerimeter=0;entryX=0;entryY=0.167;entryDx=0;entryDy=0;entryPerimeter=0;" parent="1" source="i9xBxG8gcvza3OIVQHfW-11" target="2ed32ef02a7f4228-10" edge="1">
          <mxGeometry width="50" height="50" relative="1" as="geometry">
            <mxPoint x="-120" y="380" as="sourcePoint" />
            <mxPoint x="-70" y="330" as="targetPoint" />
            <Array as="points">
              <mxPoint x="-240" y="80" />
            </Array>
          </mxGeometry>
        </mxCell>
        <mxCell id="i9xBxG8gcvza3OIVQHfW-16" value="" style="endArrow=classic;html=1;rounded=0;entryX=1.006;entryY=0.44;entryDx=0;entryDy=0;entryPerimeter=0;" parent="1" target="2ed32ef02a7f4228-10" edge="1">
          <mxGeometry width="50" height="50" relative="1" as="geometry">
            <mxPoint x="400" y="440" as="sourcePoint" />
            <mxPoint x="400" y="140" as="targetPoint" />
            <Array as="points">
              <mxPoint x="400" y="146" />
            </Array>
          </mxGeometry>
        </mxCell>
        <mxCell id="i9xBxG8gcvza3OIVQHfW-17" value="&lt;font style=&quot;font-size: 43px;&quot;&gt;&lt;b&gt;SPEED İS İMPORTENT&lt;br&gt;&lt;/b&gt;&lt;/font&gt;" style="shape=callout;whiteSpace=wrap;html=1;perimeter=calloutPerimeter;size=50;position=0.5;" parent="1" vertex="1">
          <mxGeometry x="-740" y="700" width="740" height="150" as="geometry" />
        </mxCell>
        <mxCell id="5O1IqGXms_TVmA95R5Zz-1" value="" style="endArrow=classic;html=1;rounded=0;" parent="1" edge="1">
          <mxGeometry width="50" height="50" relative="1" as="geometry">
            <mxPoint x="-40" y="610" as="sourcePoint" />
            <mxPoint x="520" y="720" as="targetPoint" />
            <Array as="points">
              <mxPoint x="520" y="610" />
            </Array>
          </mxGeometry>
        </mxCell>
        <mxCell id="5O1IqGXms_TVmA95R5Zz-2" value="&lt;div&gt;&lt;b&gt;&lt;font style=&quot;font-size: 15px;&quot;&gt;Ekip İçi İletişim Kanalı &lt;/font&gt;&lt;br&gt;&lt;/b&gt;&lt;/div&gt;&lt;div&gt;&lt;b&gt;&lt;br&gt;&lt;/b&gt;&lt;/div&gt;&lt;div&gt;&lt;b&gt;&lt;br&gt;&lt;/b&gt;&lt;/div&gt;&lt;div&gt;&lt;b&gt;&lt;br&gt;&lt;/b&gt;&lt;/div&gt;&lt;div style=&quot;font-size: 18px;&quot;&gt;&lt;b&gt;&lt;font style=&quot;font-size: 18px;&quot;&gt;DİSCORD&lt;br&gt;&lt;/font&gt;&lt;/b&gt;&lt;/div&gt;" style="ellipse;whiteSpace=wrap;html=1;aspect=fixed;" parent="1" vertex="1">
          <mxGeometry x="440" y="730" width="220" height="220" as="geometry" />
        </mxCell>
        <mxCell id="5O1IqGXms_TVmA95R5Zz-3" value="" style="rounded=0;html=1;jettySize=auto;orthogonalLoop=1;fontSize=11;endArrow=block;endFill=0;endSize=8;strokeWidth=1;shadow=0;labelBackgroundColor=none;edgeStyle=orthogonalEdgeStyle;" parent="1" source="5O1IqGXms_TVmA95R5Zz-4" target="5O1IqGXms_TVmA95R5Zz-7" edge="1">
          <mxGeometry relative="1" as="geometry" />
        </mxCell>
        <mxCell id="5O1IqGXms_TVmA95R5Zz-4" value="Kullanıcı Girişi Var Mı?" style="rounded=1;whiteSpace=wrap;html=1;fontSize=12;glass=0;strokeWidth=1;shadow=0;" parent="1" vertex="1">
          <mxGeometry x="-1010" y="1230" width="120" height="40" as="geometry" />
        </mxCell>
        <mxCell id="5O1IqGXms_TVmA95R5Zz-5" value="True" style="rounded=0;html=1;jettySize=auto;orthogonalLoop=1;fontSize=11;endArrow=block;endFill=0;endSize=8;strokeWidth=1;shadow=0;labelBackgroundColor=none;edgeStyle=orthogonalEdgeStyle;" parent="1" source="5O1IqGXms_TVmA95R5Zz-7" target="5O1IqGXms_TVmA95R5Zz-13" edge="1">
          <mxGeometry y="20" relative="1" as="geometry">
            <mxPoint as="offset" />
            <mxPoint x="-950" y="1479.9999999999998" as="targetPoint" />
          </mxGeometry>
        </mxCell>
        <mxCell id="5O1IqGXms_TVmA95R5Zz-6" value="False" style="edgeStyle=orthogonalEdgeStyle;rounded=0;html=1;jettySize=auto;orthogonalLoop=1;fontSize=11;endArrow=block;endFill=0;endSize=8;strokeWidth=1;shadow=0;labelBackgroundColor=none;" parent="1" source="5O1IqGXms_TVmA95R5Zz-7" target="5O1IqGXms_TVmA95R5Zz-8" edge="1">
          <mxGeometry y="10" relative="1" as="geometry">
            <mxPoint as="offset" />
          </mxGeometry>
        </mxCell>
        <mxCell id="5O1IqGXms_TVmA95R5Zz-7" value="isLoggedIn" style="rhombus;whiteSpace=wrap;html=1;shadow=0;fontFamily=Helvetica;fontSize=12;align=center;strokeWidth=1;spacing=6;spacingTop=-4;" parent="1" vertex="1">
          <mxGeometry x="-1000" y="1320" width="100" height="80" as="geometry" />
        </mxCell>
        <mxCell id="5O1IqGXms_TVmA95R5Zz-8" value="Redirect to /account/login" style="rounded=1;whiteSpace=wrap;html=1;fontSize=12;glass=0;strokeWidth=1;shadow=0;" parent="1" vertex="1">
          <mxGeometry x="-850" y="1340" width="160" height="40" as="geometry" />
        </mxCell>
        <mxCell id="5O1IqGXms_TVmA95R5Zz-13" value="&lt;div&gt;Redirect to /account&lt;br&gt;&lt;/div&gt;" style="rounded=1;whiteSpace=wrap;html=1;fontSize=12;glass=0;strokeWidth=1;shadow=0;" parent="1" vertex="1">
          <mxGeometry x="-1010" y="1480" width="120" height="40" as="geometry" />
        </mxCell>
        <mxCell id="5O1IqGXms_TVmA95R5Zz-15" value="&lt;div style=&quot;font-size: 15px;&quot;&gt;&lt;font style=&quot;font-size: 15px;&quot;&gt;&lt;b&gt;e-Commerce Web App Work Flow &lt;br&gt;&lt;/b&gt;&lt;/font&gt;&lt;/div&gt;&lt;div style=&quot;font-size: 15px;&quot;&gt;&lt;font style=&quot;font-size: 15px;&quot;&gt;&lt;b&gt;&lt;font style=&quot;font-size: 15px;&quot;&gt;Diagram&lt;/font&gt;&lt;br&gt;&lt;/b&gt;&lt;/font&gt;&lt;/div&gt;" style="text;strokeColor=none;align=center;fillColor=none;html=1;verticalAlign=middle;whiteSpace=wrap;rounded=0;" parent="1" vertex="1">
          <mxGeometry x="-200" y="1050" width="200" height="110" as="geometry" />
        </mxCell>
        <mxCell id="kjNT_eM3_dsYezInZOTn-1" value="e-Commerce Mobile App Work Flow" style="whiteSpace=wrap;html=1;" vertex="1" parent="1">
          <mxGeometry x="1630" y="1320" width="120" height="60" as="geometry" />
        </mxCell>
        <mxCell id="kjNT_eM3_dsYezInZOTn-4" value="" style="endArrow=classic;html=1;rounded=0;exitX=1.014;exitY=0.172;exitDx=0;exitDy=0;exitPerimeter=0;" edge="1" parent="1" source="kjNT_eM3_dsYezInZOTn-1">
          <mxGeometry width="50" height="50" relative="1" as="geometry">
            <mxPoint x="1880" y="1560" as="sourcePoint" />
            <mxPoint x="1870" y="1330" as="targetPoint" />
            <Array as="points">
              <mxPoint x="1870" y="1330" />
            </Array>
          </mxGeometry>
        </mxCell>
        <mxCell id="kjNT_eM3_dsYezInZOTn-5" value="&lt;div&gt;Teknoloji&lt;/div&gt;&lt;div&gt;&lt;br&gt;&lt;/div&gt;&lt;div&gt;--&amp;gt;Backend&lt;/div&gt;&lt;div align=&quot;left&quot;&gt;&lt;ul&gt;&lt;li&gt;Nodejs&lt;/li&gt;&lt;li&gt;Js&lt;/li&gt;&lt;li&gt;MongoDb&lt;/li&gt;&lt;li&gt;Postman&lt;br&gt;&lt;/li&gt;&lt;/ul&gt;&lt;/div&gt;&lt;div&gt;--&amp;gt;Frontend&lt;/div&gt;&lt;div&gt;&lt;div align=&quot;left&quot;&gt;&lt;ul&gt;&lt;li&gt;HTML&lt;/li&gt;&lt;li&gt;CSS&lt;/li&gt;&lt;li&gt;REACT-NATİVE&lt;/li&gt;&lt;/ul&gt;&lt;/div&gt;--&amp;gt;Hosting&lt;/div&gt;&lt;div align=&quot;left&quot;&gt;&lt;ul&gt;&lt;li&gt;Netlify&lt;/li&gt;&lt;li&gt;Swagger&lt;br&gt;&lt;/li&gt;&lt;/ul&gt;&lt;/div&gt;" style="rounded=0;whiteSpace=wrap;html=1;" vertex="1" parent="1">
          <mxGeometry x="1870" y="1200" width="200" height="370" as="geometry" />
        </mxCell>
      </root>
    </mxGraphModel>
  </diagram>
</mxfile>
